<svg width="25" height="25" viewBox="0 0 25 25" fill="none" xmlns="http://www.w3.org/2000/svg">
<circle cx="12.5" cy="12.5" r="12.5" fill="#CE5B84"/>
<path d="M8.12398 5.22121C7.47903 5.28315 6.83139 5.56052 6.33321 5.99138C6.08681 6.20412 5.92927 6.38185 5.74481 6.65921C5.45129 7.10354 5.27221 7.6125 5.22239 8.14838C5.20354 8.35169 5.20354 16.6431 5.22239 16.8464C5.27221 17.385 5.44859 17.8886 5.74616 18.3356C5.99794 18.7153 6.28204 18.9994 6.66174 19.2512C7.10741 19.5487 7.61233 19.7251 8.1509 19.7749C8.35422 19.7938 16.6456 19.7938 16.8489 19.7749C17.3875 19.7251 17.8911 19.5487 18.3381 19.2512C18.7178 18.9994 19.0019 18.7153 19.2537 18.3356C19.5512 17.8899 19.7276 17.385 19.7774 16.8464C19.7963 16.6431 19.7963 8.35169 19.7774 8.14838C19.7276 7.6098 19.5512 7.10623 19.2537 6.65921C19.0019 6.27952 18.7178 5.99542 18.3381 5.74229C17.8938 5.44876 17.3848 5.26968 16.8489 5.21986C16.6658 5.20371 8.30171 5.20505 8.12398 5.22121ZM14.5061 6.99717C15.2117 7.02679 15.5402 7.07526 15.9387 7.20722C16.414 7.3661 16.7399 7.56537 17.0792 7.90467C17.4252 8.25071 17.6204 8.57251 17.778 9.0505C17.9099 9.4477 17.9571 9.77489 17.9867 10.4777C18.0042 10.8978 18.0042 14.0835 17.9867 14.5036C17.9571 15.2064 17.9099 15.5336 17.778 15.9308C17.6204 16.4088 17.4239 16.7306 17.0792 17.0767C16.7331 17.4213 16.4181 17.6139 15.9347 17.7755C15.5402 17.9061 15.2117 17.9545 14.5061 17.9842C14.086 18.0017 10.9003 18.0017 10.4803 17.9842C9.77337 17.9545 9.44618 17.9061 9.04764 17.7741C8.57234 17.6152 8.2465 17.416 7.9072 17.0767C7.56116 16.7306 7.36593 16.4088 7.20839 15.9308C7.00777 15.3236 6.98219 14.925 6.98219 12.4907C6.98219 10.6366 6.99566 10.1344 7.06163 9.67659C7.14376 9.1084 7.34842 8.58867 7.64868 8.19147C7.69446 8.13088 7.81025 8.00162 7.9072 7.90467C8.27478 7.5371 8.65178 7.31763 9.18093 7.16548C9.61853 7.03891 10.0103 7.00121 11.0794 6.98371C11.8415 6.97024 14.0712 6.97967 14.5061 6.99717Z" fill="#FFFCF8"/>
<path d="M10.7225 7.97482C9.93754 8.00579 9.67768 8.03811 9.35588 8.14313C8.76209 8.33836 8.34066 8.7598 8.14542 9.35358C8.0606 9.6121 8.02155 9.86119 7.99327 10.3096C7.96904 10.7027 7.96904 14.2789 7.99327 14.672C8.03098 15.2631 8.0956 15.5634 8.25852 15.904C8.42548 16.2528 8.73113 16.5584 9.07985 16.7254C9.42051 16.8883 9.72076 16.9529 10.3119 16.9906C10.705 17.0148 14.2812 17.0148 14.6743 16.9906C15.1227 16.9623 15.3718 16.9233 15.6303 16.8385C16.3049 16.6176 16.7492 16.11 16.9081 15.3789C17.001 14.9561 17.0104 14.6815 17.0104 12.4908C17.0104 10.3001 17.001 10.0255 16.9081 9.60267C16.7479 8.86213 16.3008 8.35856 15.6101 8.13774C15.3624 8.0583 15.12 8.01925 14.7013 7.99233C14.4993 7.97886 11.008 7.96405 10.7225 7.97482ZM15.7151 8.96042C15.8484 9.02639 15.9642 9.1395 16.0235 9.26068C16.1258 9.47072 16.1083 9.7252 15.979 9.91774C15.909 10.0214 15.8363 10.086 15.7205 10.1413C15.4607 10.2678 15.1752 10.2193 14.9692 10.0147C14.7645 9.80868 14.7161 9.52323 14.8426 9.26337C14.9221 9.10045 15.0486 8.98735 15.2237 8.92676C15.3018 8.89848 15.3327 8.89579 15.458 8.89983C15.5966 8.90387 15.6074 8.90656 15.7151 8.96042ZM12.8001 9.67807C14.2354 9.83561 15.3206 11.0474 15.3206 12.4908C15.3206 14.0554 14.0577 15.3183 12.4931 15.3183C10.9285 15.3183 9.66556 14.0554 9.66556 12.4908C9.66556 11.2776 10.433 10.2059 11.5815 9.81272C11.7499 9.75482 12.003 9.69692 12.1699 9.67807C12.3181 9.66192 12.6493 9.66057 12.8001 9.67807Z" fill="#FFFCF8"/>
<path d="M12.3117 10.6539C11.7018 10.74 11.2413 11.0282 10.9289 11.5156C10.8279 11.6731 10.7337 11.9088 10.6865 12.1269C10.6462 12.31 10.6462 12.6708 10.6865 12.854C10.8508 13.5972 11.3867 14.1331 12.1299 14.2973C12.313 14.3377 12.6739 14.3377 12.857 14.2973C13.5989 14.1344 14.1375 13.5958 14.3004 12.854C14.3408 12.6708 14.3408 12.31 14.3004 12.1269C14.1375 11.385 13.5908 10.8397 12.857 10.6848C12.7345 10.6579 12.4073 10.6404 12.3117 10.6539Z" fill="#FFFCF8"/>
</svg>
