<svg width="66" height="56" viewBox="0 0 66 56" fill="none" xmlns="http://www.w3.org/2000/svg">
<path d="M56.863 40.7109C59.5349 43.3933 51.5727 43.6569 50.2934 45.6574C49.014 47.6578 41.1605 44.9507 38.7965 46.4818C36.4326 48.0128 44.2364 55.1154 41.1478 55.944C38.0592 56.7726 34.7488 48.1306 31.4057 48.1306C28.0626 48.1306 25.4611 45.6616 22.3725 44.8329C19.2839 44.0043 15.7687 53.9009 13.4047 52.3698C11.0408 50.8387 12.9762 47.6578 11.6969 45.6574C10.4176 43.6569 3.81602 43.1733 7.10045 40.7001C10.3849 38.2269 32.2271 39.8865 32.2271 39.8865C32.2271 39.8865 56.0418 39.8865 56.863 40.7109Z" fill="#5BA5CE"/>
<path d="M49.605 5.951C48.9601 4.74469 47.4602 4.29 46.2549 4.93544L41.0649 7.71472C38.8469 4.45182 35.8252 1.81688 32.2921 0.0644734C32.0128 -0.0740336 31.6743 0.0169371 31.5019 0.276788L16.3549 23.1385C16.179 23.4475 16.2869 23.8408 16.5956 24.0168C16.6794 24.0645 16.7725 24.0927 16.8686 24.0995L44.2764 24.1722C44.5881 24.1728 44.8515 23.9415 44.8913 23.632C45.3952 19.7181 44.8815 15.7404 43.4002 12.083L48.5902 9.30372C49.7955 8.65828 50.2499 7.15731 49.605 5.951ZM41.747 8.75423L46.8388 6.02757C47.4415 5.70479 48.1914 5.9323 48.5138 6.53535C48.8362 7.13839 48.6089 7.88893 48.0064 8.21159L42.9146 10.9383C42.8016 10.6968 42.6781 10.4604 42.5566 10.2227C42.4904 10.0923 42.4335 9.95693 42.3646 9.828C42.2958 9.6993 42.2148 9.57685 42.1432 9.44934C42.0131 9.2165 41.885 8.98227 41.747 8.75423ZM18.0208 22.8645L29.5627 5.44612C29.6757 5.52593 29.793 5.60351 29.9053 5.68401C30.0719 5.80532 30.2365 5.92378 30.3982 6.04802C30.595 6.19819 30.7872 6.35306 30.9783 6.50963C31.1341 6.63705 31.2899 6.76446 31.4407 6.89425C31.6289 7.05693 31.8115 7.22547 31.9928 7.39382C32.1349 7.52853 32.282 7.66031 32.4193 7.79762C32.5999 7.97402 32.7729 8.15588 32.946 8.33796C33.0781 8.47775 33.2109 8.61183 33.3383 8.75298C33.5111 8.94489 33.6773 9.14257 33.8429 9.33971C33.9598 9.47858 34.0803 9.61557 34.1932 9.75745C34.3628 9.96944 34.522 10.1875 34.6818 10.4087C34.7817 10.5442 34.8852 10.6765 34.9803 10.8109C35.1555 11.0598 35.32 11.3152 35.4837 11.5711C35.556 11.6832 35.6326 11.792 35.7031 11.9053C36.1622 12.6516 36.5758 13.4252 36.9413 14.2216C36.9963 14.343 37.0443 14.467 37.0974 14.5897C37.2187 14.868 37.3402 15.1465 37.4499 15.4304C37.5104 15.5871 37.5628 15.7464 37.6186 15.9021C37.7098 16.1567 37.8027 16.4103 37.8874 16.6677C37.9426 16.8402 37.9897 17.0167 38.0406 17.1918C38.1126 17.4391 38.185 17.6862 38.248 17.9368C38.2952 18.1224 38.3335 18.3082 38.3753 18.4938C38.4305 18.7388 38.4858 18.9839 38.5322 19.2321C38.568 19.4238 38.5981 19.6182 38.6312 19.8113C38.6705 20.0557 38.7092 20.301 38.74 20.548C38.7643 20.7458 38.7837 20.946 38.8032 21.1464C38.827 21.392 38.8491 21.638 38.8651 21.8858C38.8786 22.0894 38.8875 22.2952 38.8942 22.4982C38.8981 22.6367 38.9019 22.775 38.9018 22.9155L18.0208 22.8645ZM40.152 22.9237C40.149 22.77 40.1364 22.6189 40.1311 22.4657C40.1237 22.2498 40.115 22.0341 40.1019 21.8192C40.0848 21.5578 40.0614 21.2987 40.0361 21.0397C40.0148 20.827 39.9952 20.6142 39.9683 20.4025C39.9363 20.1443 39.8956 19.8884 39.8547 19.6321C39.8216 19.4232 39.7895 19.2134 39.7509 19.0057C39.703 18.7506 39.6467 18.4998 39.5896 18.2445C39.5437 18.0407 39.5011 17.836 39.4501 17.6344C39.3844 17.3804 39.3114 17.1285 39.2388 16.8768C39.1823 16.6807 39.1298 16.4841 39.0658 16.2908C38.9839 16.0341 38.8912 15.7818 38.799 15.529C38.7334 15.3459 38.672 15.1603 38.6026 14.9781C38.498 14.709 38.3822 14.4453 38.2681 14.1804C38.1986 14.0203 38.1356 13.8565 38.0629 13.6982C37.8961 13.335 37.7166 12.9781 37.5311 12.6247C37.5018 12.5699 37.4775 12.5127 37.4483 12.4582C37.4191 12.4036 37.3856 12.3514 37.3558 12.2968C37.1676 11.9448 36.9679 11.5987 36.7585 11.2583C36.6673 11.1099 36.5662 10.9668 36.4716 10.82C36.3148 10.5779 36.1598 10.3352 35.9941 10.0988C35.8816 9.93968 35.7609 9.78584 35.6452 9.62963C35.4846 9.41338 35.3264 9.19617 35.1599 8.98477C35.0326 8.82542 34.8982 8.67241 34.7688 8.51557C34.5999 8.31541 34.4326 8.11407 34.2564 7.91924C34.117 7.76492 33.9706 7.61581 33.8266 7.46451C33.6482 7.27934 33.4692 7.08995 33.2834 6.90788C33.1339 6.75953 32.9756 6.61734 32.8203 6.47384C32.6288 6.29539 32.4398 6.12179 32.2429 5.95186C32.0819 5.81198 31.9159 5.67759 31.7509 5.54184C31.5493 5.37729 31.3469 5.21399 31.1395 5.05452C30.9681 4.92441 30.7919 4.79834 30.6183 4.67142C30.4939 4.5821 30.3753 4.4877 30.2492 4.39988L32.227 1.42059C35.5412 3.166 38.3472 5.74105 40.3715 8.89455C40.4588 9.03034 40.5423 9.16958 40.627 9.30845C40.7973 9.58572 40.9611 9.86674 41.1184 10.1515C41.2138 10.3299 41.3089 10.5079 41.4044 10.6866C41.5534 10.9758 41.6961 11.2681 41.8326 11.5635C41.9009 11.7109 41.9704 11.8579 42.0348 12.0059C43.5327 15.4414 44.1162 19.2065 43.7283 22.9344L40.152 22.9237Z" fill="#CE5B84"/>
<path d="M32.1979 10.1454C31.7619 9.33147 30.7493 9.02561 29.9359 9.46205C29.67 9.60471 29.4478 9.81682 29.2925 10.076L28.3932 11.5809C28.2297 11.8965 28.353 12.2853 28.6683 12.4489C28.7387 12.4854 28.815 12.5085 28.8937 12.5172L30.6435 12.603C31.565 12.6475 32.3483 11.9357 32.3927 11.0134C32.4074 10.7118 32.34 10.4117 32.1979 10.1454ZM30.7046 11.3664L29.9838 11.331L30.3543 10.7112C30.4771 10.5057 30.7429 10.4386 30.9482 10.5613C31.1536 10.6842 31.2206 10.9503 31.098 11.1557C31.0159 11.2934 30.8646 11.3744 30.7046 11.3664Z" fill="#5BA5CE"/>
<path d="M36.398 19.7991C36.9098 19.0307 36.702 17.9924 35.9343 17.4804C35.1665 16.9682 34.1293 17.1761 33.6177 17.9444C33.5953 17.978 33.574 18.0123 33.5543 18.0474L32.6545 19.552C32.491 19.8676 32.6143 20.2564 32.9297 20.42C33.0001 20.4565 33.0763 20.4796 33.1551 20.4884L34.9051 20.5745C35.5069 20.608 36.0789 20.3108 36.398 19.7991ZM34.9665 19.3386L34.2458 19.3032L34.6162 18.6835C34.7391 18.4779 35.0048 18.4106 35.2102 18.5335C35.4156 18.6564 35.4826 18.9225 35.36 19.1279C35.2778 19.2656 35.1266 19.3466 34.9665 19.3386Z" fill="#5BA5CE"/>
<path d="M28.8731 17.0531C28.4371 16.2392 27.4242 15.9334 26.611 16.3697C26.3452 16.5124 26.1229 16.7245 25.9677 16.9837L25.0683 18.4886C24.9047 18.804 25.0278 19.1923 25.3429 19.3561C25.4133 19.3925 25.4899 19.4157 25.5687 19.4245L27.3186 19.5107C28.2402 19.5552 29.0235 18.8434 29.0679 17.9211C29.0826 17.6195 29.0152 17.3194 28.8731 17.0531ZM27.3797 18.2741L26.659 18.2387L27.0295 17.6189C27.1523 17.4134 27.4181 17.3463 27.6234 17.469C27.8288 17.5919 27.8958 17.858 27.7732 18.0634C27.691 18.2011 27.5398 18.2821 27.3797 18.2741Z" fill="#5BA5CE"/>
<path d="M0 36.7787V35.4537H2.14072V28.2368H0.0281674V26.9118H5.74615V28.2368H3.6336V35.4537H5.77432V36.7787H0Z" fill="#CE5B84"/>
<path d="M11.3601 36.9479C10.5338 36.9479 9.82962 36.7364 9.24749 36.3136C8.67476 35.8907 8.23347 35.2987 7.92363 34.5375C7.62317 33.767 7.47295 32.8743 7.47295 31.8594C7.47295 30.8351 7.62317 29.9424 7.92363 29.1812C8.23347 28.4106 8.67945 27.8139 9.26158 27.3911C9.84371 26.9588 10.5432 26.7427 11.3601 26.7427C12.421 26.7427 13.266 27.034 13.8951 27.6166C14.5242 28.1898 14.8904 28.9698 14.9936 29.9565H13.3459C13.2614 29.4396 13.0501 29.0121 12.7121 28.6738C12.3835 28.3261 11.9281 28.1522 11.346 28.1522C10.6042 28.1522 10.0268 28.4811 9.61367 29.1389C9.20055 29.7967 8.99399 30.7035 8.99399 31.8594C8.99399 33.0058 9.20055 33.9079 9.61367 34.5657C10.0268 35.2141 10.6042 35.5383 11.346 35.5383C11.9469 35.5383 12.4069 35.3833 12.7262 35.0732C13.0454 34.7537 13.252 34.3355 13.3459 33.8187H14.9936C14.8434 34.7866 14.4632 35.5524 13.8529 36.1162C13.2426 36.6707 12.4116 36.9479 11.3601 36.9479Z" fill="#CE5B84"/>
<path d="M16.6782 36.7787V26.9118H22.9736V28.2509H18.1711V31.1264H22.5511V32.4514H18.1711V35.4397H22.9736V36.7787H16.6782Z" fill="#CE5B84"/>
<path d="M24.7849 36.7787V26.9118H28.3058C29.3293 26.9118 30.1039 27.1467 30.6296 27.6166C31.1554 28.0865 31.4183 28.6926 31.4183 29.4349C31.4183 30.0082 31.2681 30.4733 30.9677 30.8304C30.6672 31.1875 30.3198 31.4459 29.9255 31.6056V31.7043C30.3949 31.8735 30.7986 32.1507 31.1367 32.536C31.4747 32.9118 31.6437 33.4099 31.6437 34.0301C31.6437 34.5375 31.5169 35.0027 31.2634 35.4256C31.0193 35.839 30.6578 36.1679 30.179 36.4122C29.7001 36.6566 29.1133 36.7787 28.4185 36.7787H24.7849ZM26.2778 31.0277H28.1227C28.6955 31.0277 29.1321 30.915 29.4325 30.6894C29.733 30.4545 29.8832 30.1021 29.8832 29.6323C29.8832 28.702 29.287 28.2368 28.0946 28.2368H26.2778V31.0277ZM26.2778 35.3974H28.2213C28.8316 35.3974 29.3011 35.2658 29.6297 35.0027C29.9583 34.7396 30.1226 34.3543 30.1226 33.8468C30.1226 33.3488 29.9489 32.9682 29.6015 32.7051C29.2541 32.4326 28.7847 32.2963 28.1932 32.2963H26.2778V35.3974Z" fill="#CE5B84"/>
<path d="M33.5676 36.7787V26.9118H39.8631V28.2509H35.0605V31.1264H39.4405V32.4514H35.0605V35.4397H39.8631V36.7787H33.5676Z" fill="#CE5B84"/>
<path d="M41.9419 36.7787V26.9118H45.1671C45.937 26.9118 46.5708 27.0434 47.0684 27.3065C47.5754 27.5696 47.951 27.9267 48.1951 28.3778C48.4486 28.8194 48.5754 29.3222 48.5754 29.886C48.5754 30.525 48.4111 31.0935 48.0824 31.5916C47.7632 32.0802 47.2703 32.4373 46.6037 32.6628L48.674 36.7787H46.9417L45.0544 32.8743H43.4348V36.7787H41.9419ZM43.4348 31.5211H45.0826C45.7586 31.5211 46.2516 31.3707 46.5614 31.07C46.8806 30.7693 47.0402 30.3746 47.0402 29.886C47.0402 29.3879 46.8853 28.9933 46.5755 28.702C46.2656 28.4013 45.7633 28.2509 45.0685 28.2509H43.4348V31.5211Z" fill="#CE5B84"/>
<path d="M50.3867 36.7787V26.9118H53.6118C54.3817 26.9118 55.0155 27.0434 55.5131 27.3065C56.0201 27.5696 56.3957 27.9267 56.6398 28.3778C56.8933 28.8194 57.0201 29.3222 57.0201 29.886C57.0201 30.525 56.8558 31.0935 56.5272 31.5916C56.2079 32.0802 55.715 32.4373 55.0484 32.6628L57.1187 36.7787H55.3864L53.4992 32.8743H51.8795V36.7787H50.3867ZM51.8795 31.5211H53.5273C54.2034 31.5211 54.6963 31.3707 55.0061 31.07C55.3254 30.7693 55.485 30.3746 55.485 29.886C55.485 29.3879 55.33 28.9933 55.0202 28.702C54.7104 28.4013 54.208 28.2509 53.5132 28.2509H51.8795V31.5211Z" fill="#CE5B84"/>
<path d="M61.2538 36.7787V33.0293L58.0005 26.9118H59.7046L62.0002 31.4506L64.2959 26.9118H66L62.7467 33.0293V36.7787H61.2538Z" fill="#CE5B84"/>
</svg>
