<svg width="25" height="25" viewBox="0 0 25 25" fill="none" xmlns="http://www.w3.org/2000/svg">
<circle cx="12.5" cy="12.5" r="12.5" fill="#CE5B84"/>
<path d="M9.9451 20C16.0088 20 19.3248 14.8351 19.3248 10.3562C19.3248 10.2095 19.3219 10.0635 19.3155 9.91809C19.9607 9.43807 20.5176 8.84373 20.9599 8.16293C20.3692 8.43294 19.7336 8.61466 19.0668 8.6966C19.7474 8.27699 20.2699 7.61316 20.5165 6.82188C19.8693 7.21658 19.1614 7.49482 18.4231 7.64461C17.8215 6.98578 16.9651 6.57373 16.0167 6.57373C14.1962 6.57373 12.7199 8.09164 12.7199 9.9627C12.7199 10.2287 12.7489 10.4874 12.8054 10.7355C10.0655 10.5938 7.636 9.24506 6.01002 7.19423C5.71716 7.71149 5.56312 8.29936 5.56364 8.89782C5.56364 10.0738 6.14561 11.1119 7.03067 11.7192C6.50715 11.7028 5.99512 11.5574 5.53764 11.2953C5.53715 11.3095 5.53715 11.3234 5.53715 11.3386C5.53715 12.98 6.67348 14.3505 8.18192 14.6611C7.89861 14.7404 7.60627 14.7805 7.31264 14.7804C7.10059 14.7804 6.89392 14.7589 6.69307 14.7193C7.11277 16.066 8.32976 17.046 9.77266 17.0734C8.64433 17.9827 7.22299 18.5242 5.6782 18.5242C5.41541 18.5245 5.15284 18.5088 4.89185 18.4773C6.35084 19.4388 8.08326 19.9998 9.94526 19.9998" fill="#FFFCF8"/>
</svg>
